# This file uses meters as units for non-parametric coordinates.

mtllib Cage.mtl
g default
v 0.000000 533.863438 34.819714
v 34.819730 533.863438 -0.000000
v 0.000000 603.627803 49.482571
v 49.482568 603.627803 -0.000000
v -49.482568 603.627803 0.000000
v -0.000000 603.627803 -49.482571
v -34.819730 533.863438 0.000000
v 0.000000 533.863438 -34.819714
v 0.000000 615.830355 23.489618
v 23.489622 615.830355 0.000000
v -0.000000 615.830355 -23.489618
v -23.489622 615.830355 0.000000
v 0.000002 622.837756 13.382430
v 13.382439 622.837756 -0.000002
v -0.000002 622.837756 -13.382430
v -13.382439 622.837756 0.000002
v 0.000002 630.814089 10.110953
v 10.110964 630.814089 -0.000002
v -0.000002 630.814089 -10.110953
v -10.110964 630.814089 0.000002
v 5.047409 540.989524 31.678275
v 31.678161 540.989524 5.047536
v 44.089989 597.459881 4.821633
v 4.821595 597.459881 44.090024
v -44.089729 597.459917 -4.821211
v -4.821344 597.459917 -44.089615
v -5.047774 540.989488 -31.678678
v -31.678510 540.989488 -5.047923
v 5.047774 540.989488 -31.678466
v 31.678529 540.989488 -5.047726
v 4.821341 597.459917 -44.089580
v 44.089745 597.459917 -4.821198
v -31.678529 540.989488 5.047726
v -5.047774 540.989488 31.678466
v -4.821341 597.459917 44.089580
v -44.089745 597.459917 4.821198
v 2.703270 542.782144 28.295301
v 28.295182 542.782144 2.703367
v 40.705924 597.127154 2.476377
v 2.476364 597.127154 40.705956
v -40.705956 597.127226 -2.476092
v -2.476374 597.127226 -40.705648
v -2.703273 542.782144 -28.295228
v -28.295207 542.782144 -2.703317
v 2.431996 543.260653 -28.462550
v 28.465580 543.260581 -2.432087
v 2.276318 596.439664 -40.880856
v 40.881012 596.439664 -2.276181
v -28.465577 543.260581 2.432090
v -2.431992 543.260653 28.462554
v -2.276315 596.439664 40.880853
v -40.881012 596.439664 2.276178
v -40.732773 597.539088 -2.355841
v -2.356035 597.539088 -40.732554
v -2.718798 542.329333 -28.457925
v -28.457885 542.329333 -2.718858
v -42.617322 597.132609 -4.240535
v -4.240605 597.132609 -42.617271
v -4.602988 541.922818 -30.342213
v -30.342056 541.922818 -4.603130
v -28.457898 542.329333 2.718749
v -2.718802 542.329333 28.457808
v -2.356038 597.539088 40.732624
v -40.732786 597.539088 2.355917
v -30.342068 541.922818 4.602975
v -4.602988 541.922818 30.342040
v -4.240602 597.132609 42.617245
v -42.617337 597.132609 4.240526
v 2.804709 542.310778 28.543863
v 28.543780 542.310778 2.804780
v 40.818650 597.520534 2.441927
v 2.441927 597.520534 40.818657
v 4.611295 541.920988 30.350466
v 30.350375 541.920988 4.611391
v 42.626112 597.130635 4.249414
v 4.249386 597.130635 42.626134
v 2.718804 542.329333 -28.457812
v 2.356041 597.539088 -40.732624
v 40.732789 597.539088 -2.355920
v 28.457900 542.329333 -2.718751
v 4.602988 541.922818 -30.342040
v 4.240602 597.132609 -42.617245
v 42.617337 597.132609 -4.240526
v 30.342068 541.922818 -4.602975
v 28.906877 599.461412 -1.311804
v 1.311797 599.461412 -28.906874
v -1.311797 599.461412 28.906874
v -28.906877 599.461412 1.311804
v 1.503595 542.525107 -22.778205
v 23.197090 542.525107 -1.478660
v -23.197090 542.525107 1.478657
v -1.503596 542.525107 22.778202
vt 0.289534 0.265478
vt 0.345811 0.265478
vt 0.338932 0.289197
vt 0.296412 0.289197
vt 0.268282 0.244641
vt 0.367063 0.244641
vt 0.213627 0.208355
vt 0.421718 0.208355
vt 0.235104 0.190014
vt 0.400240 0.190014
vt 0.244458 0.000903
vt 0.261677 0.022093
vt 0.390887 0.000903
vt 0.373668 0.022093
vt 0.371793 0.024868
vt 0.263552 0.024868
vt 0.714402 0.265478
vt 0.770680 0.265478
vt 0.763801 0.289197
vt 0.721281 0.289197
vt 0.693150 0.244641
vt 0.791932 0.244641
vt 0.638495 0.208355
vt 0.846586 0.208355
vt 0.659972 0.190014
vt 0.825109 0.190014
vt 0.669326 0.000903
vt 0.686545 0.022093
vt 0.815755 0.000903
vt 0.798536 0.022093
vt 0.796661 0.024868
vt 0.688420 0.024868
vt 0.135670 0.882018
vt 0.135670 0.773776
vt 0.138439 0.773163
vt 0.138439 0.882637
vt 0.700508 0.461110
vt 0.673936 0.625283
vt 0.673456 0.622014
vt 0.699895 0.463879
vt 0.663832 0.624058
vt 0.689449 0.462457
vt 0.336896 0.625218
vt 0.336896 0.786605
vt 0.333627 0.787084
vt 0.333627 0.624739
vt 0.731332 0.625283
vt 0.704759 0.461110
vt 0.705378 0.463879
vt 0.731811 0.622014
vt 0.715818 0.462457
vt 0.741436 0.624058
vt 0.143465 0.882018
vt 0.143465 0.773776
vt 0.146235 0.773163
vt 0.146234 0.882637
vt 0.782364 0.461110
vt 0.755792 0.625283
vt 0.755312 0.622014
vt 0.781751 0.463879
vt 0.745687 0.624058
vt 0.771305 0.462457
vt 0.329487 0.625218
vt 0.329487 0.786605
vt 0.326218 0.787085
vt 0.326218 0.624739
vt 0.813187 0.638957
vt 0.786615 0.474784
vt 0.787233 0.477553
vt 0.813667 0.635688
vt 0.797673 0.476131
vt 0.823291 0.637732
vt 0.784006 0.459114
vt 0.809626 0.291193
vt 0.813372 0.293968
vt 0.788323 0.458141
vt 0.754247 0.291193
vt 0.779867 0.459114
vt 0.775550 0.458141
vt 0.750502 0.293968
vt 0.586718 0.291193
vt 0.612341 0.459114
vt 0.608060 0.458135
vt 0.583009 0.293963
vt 0.549538 0.459114
vt 0.575161 0.291193
vt 0.578870 0.293963
vt 0.553819 0.458135
vt 0.999002 0.805126
vt 0.837615 0.805126
vt 0.864187 0.640953
vt 0.972429 0.640953
vt 0.000998 0.621534
vt 0.027571 0.457361
vt 0.135812 0.457361
vt 0.162385 0.621534
vt 0.641376 0.627279
vt 0.667949 0.791452
vt 0.506562 0.791452
vt 0.533135 0.627279
vt 0.193425 0.458570
vt 0.301667 0.458570
vt 0.328240 0.622743
vt 0.166853 0.622743
vt 0.297676 0.291193
vt 0.322727 0.455365
vt 0.315126 0.456525
vt 0.290079 0.292352
vt 0.253292 0.455365
vt 0.278342 0.291193
vt 0.285940 0.292352
vt 0.260893 0.456525
vt 0.512426 0.292402
vt 0.520350 0.291193
vt 0.545398 0.455366
vt 0.537473 0.456574
vt 0.483240 0.456574
vt 0.475314 0.455366
vt 0.500363 0.291193
vt 0.508287 0.292402
vt 0.127714 0.624739
vt 0.274143 0.624739
vt 0.274143 0.771168
vt 0.127714 0.771167
vt 0.971796 0.323967
vt 0.971796 0.440014
vt 0.844717 0.440014
vt 0.844717 0.323967
vt 0.999002 0.300818
vt 0.999002 0.463163
vt 0.817511 0.463163
vt 0.817511 0.300817
vt 0.827873 0.472788
vt 0.988641 0.472788
vt 0.827872 0.291193
vt 0.988640 0.291193
vt 0.117850 0.792676
vt 0.117022 0.883076
vt 0.014081 0.884010
vt 0.014909 0.793609
vt 0.130933 0.783603
vt 0.130926 0.893076
vt 0.000998 0.893083
vt 0.001005 0.783609
vt 0.012154 0.903522
vt 0.119777 0.903522
vt 0.012154 0.773163
vt 0.119777 0.773163
vt 0.227922 0.456329
vt 0.227922 0.291193
vt 0.232239 0.293067
vt 0.232239 0.454454
vt 0.244835 0.456330
vt 0.244835 0.291193
vt 0.249152 0.293068
vt 0.249152 0.454455
vt 0.223782 0.291193
vt 0.223782 0.456330
vt 0.219501 0.454455
vt 0.219501 0.293068
vt 0.240695 0.291193
vt 0.240695 0.456330
vt 0.236379 0.454454
vt 0.236378 0.293067
vt 0.192189 0.881405
vt 0.192189 0.773163
vt 0.199786 0.773163
vt 0.199786 0.881405
vt 0.285883 0.624739
vt 0.285883 0.786126
vt 0.278282 0.786126
vt 0.278282 0.624739
vt 0.322078 0.786126
vt 0.314153 0.786126
vt 0.314153 0.624739
vt 0.322078 0.624739
vt 0.151261 0.773163
vt 0.159185 0.773163
vt 0.159185 0.881405
vt 0.151261 0.881405
vt 0.172827 0.881405
vt 0.164904 0.881405
vt 0.164904 0.773163
vt 0.172827 0.773163
vt 0.310013 0.786126
vt 0.302088 0.786126
vt 0.302088 0.624739
vt 0.310013 0.624739
vt 0.290023 0.624739
vt 0.297948 0.624739
vt 0.297948 0.786126
vt 0.290023 0.786126
vt 0.178546 0.773163
vt 0.186470 0.773163
vt 0.186470 0.881405
vt 0.178546 0.881405
vt 0.205831 0.773163
vt 0.248351 0.773163
vt 0.248351 0.815683
vt 0.205831 0.815683
vt 0.076905 0.265478
vt 0.133182 0.265478
vt 0.126303 0.289197
vt 0.083783 0.289197
vt 0.055653 0.244641
vt 0.154434 0.244641
vt 0.000998 0.208355
vt 0.209089 0.208355
vt 0.022475 0.190014
vt 0.187612 0.190014
vt 0.031829 0.000903
vt 0.049048 0.022093
vt 0.178258 0.000903
vt 0.161039 0.022093
vt 0.159164 0.024863
vt 0.050922 0.024863
vt 0.558245 0.024621
vt 0.501968 0.024621
vt 0.508847 0.000903
vt 0.551367 0.000903
vt 0.579497 0.045459
vt 0.480716 0.045459
vt 0.634152 0.081744
vt 0.426061 0.081744
vt 0.612675 0.100085
vt 0.447538 0.100085
vt 0.603321 0.289197
vt 0.586103 0.268007
vt 0.456892 0.289197
vt 0.474111 0.268007
vt 0.475986 0.265232
vt 0.584228 0.265232
vt 0.359085 0.458570
vt 0.467326 0.458570
vt 0.467017 0.459972
vt 0.359394 0.459972
vt 0.493899 0.622743
vt 0.493590 0.621573
vt 0.332512 0.622743
vt 0.332822 0.621573
vt 0.498172 0.461110
vt 0.659559 0.461110
vt 0.659249 0.462335
vt 0.498481 0.462335
vt 0.632987 0.625283
vt 0.632677 0.623937
vt 0.524745 0.625283
vt 0.525055 0.623937
vt 0.742617 0.459114
vt 0.716996 0.291193
vt 0.721313 0.292166
vt 0.746362 0.456339
vt 0.683491 0.459114
vt 0.709112 0.291193
vt 0.712857 0.293968
vt 0.687808 0.458141
vt 0.653731 0.291193
vt 0.679352 0.459114
vt 0.675035 0.458141
vt 0.649986 0.293968
vt 0.645847 0.291193
vt 0.620226 0.459114
vt 0.616481 0.456339
vt 0.641530 0.292166
vt 0.854115 0.474784
vt 0.962357 0.474784
vt 0.988929 0.638957
vt 0.827542 0.638957
vt 0.080548 0.455366
vt 0.053975 0.291193
vt 0.215362 0.291193
vt 0.188789 0.455366
vt 0.672088 0.640953
vt 0.833475 0.640953
vt 0.806902 0.805125
vt 0.698661 0.805125
vt 0.341035 0.791451
vt 0.367608 0.627279
vt 0.475849 0.627279
vt 0.502422 0.791451
vt 0.471175 0.455366
vt 0.463251 0.456574
vt 0.438202 0.292402
vt 0.446128 0.291193
vt 0.409016 0.456574
vt 0.401091 0.455366
vt 0.426139 0.291193
vt 0.434063 0.292402
vt 0.363979 0.292402
vt 0.371902 0.291193
vt 0.396951 0.455366
vt 0.389026 0.456574
vt 0.351914 0.291193
vt 0.359839 0.292402
vt 0.334790 0.456574
vt 0.326867 0.455366
vn -0.000000 -1.000000 -0.000000
vn -0.000000 -1.000000 -0.000000
vn -0.000000 -1.000000 -0.000000
vn -0.000000 -1.000000 -0.000000
vn 0.391108 0.833108 0.391108
vn 0.391108 0.833108 0.391108
vn 0.400804 0.823840 0.400804
vn 0.400804 0.823840 0.400804
vn 0.391108 0.833108 -0.391108
vn 0.391108 0.833108 -0.391108
vn 0.400805 0.823839 -0.400805
vn 0.400805 0.823839 -0.400805
vn -0.391108 0.833108 -0.391108
vn -0.391108 0.833108 -0.391108
vn -0.400804 0.823840 -0.400804
vn -0.400804 0.823840 -0.400804
vn -0.391108 0.833108 0.391108
vn -0.391108 0.833108 0.391108
vn -0.400805 0.823839 0.400805
vn -0.400805 0.823839 0.400805
vn 0.552049 0.624887 0.552049
vn 0.552049 0.624887 0.552049
vn 0.552049 0.624887 -0.552049
vn 0.552049 0.624887 -0.552049
vn -0.552049 0.624887 -0.552049
vn -0.552049 0.624887 -0.552049
vn -0.552049 0.624887 0.552049
vn -0.552049 0.624887 0.552049
vn 0.679123 0.278541 0.679123
vn 0.679123 0.278541 0.679123
vn 0.679122 0.278541 -0.679123
vn 0.679122 0.278541 -0.679123
vn -0.679123 0.278541 -0.679123
vn -0.679123 0.278541 -0.679123
vn -0.679122 0.278541 0.679123
vn -0.679122 0.278541 0.679123
vn 0.673067 -0.170287 0.719710
vn 0.719710 -0.170287 0.673067
vn 0.721005 -0.169456 0.671890
vn 0.671890 -0.169456 0.721005
vn 0.724433 -0.113836 0.679881
vn 0.724275 -0.113403 0.680122
vn 0.679881 -0.113836 0.724433
vn 0.680122 -0.113402 0.724275
vn -0.724432 -0.113868 -0.679877
vn -0.679876 -0.113869 -0.724433
vn -0.680117 -0.113435 -0.724274
vn -0.724274 -0.113436 -0.680118
vn -0.673062 -0.170316 -0.719709
vn -0.671884 -0.169482 -0.721004
vn -0.719708 -0.170315 -0.673062
vn -0.721003 -0.169482 -0.671886
vn 0.719705 -0.170307 -0.673067
vn 0.673068 -0.170306 -0.719705
vn 0.671891 -0.169474 -0.721000
vn 0.721001 -0.169474 -0.671890
vn 0.679881 -0.113869 -0.724428
vn 0.680122 -0.113436 -0.724270
vn 0.724428 -0.113868 -0.679881
vn 0.724270 -0.113436 -0.680121
vn -0.719705 -0.170307 0.673067
vn -0.673068 -0.170306 0.719705
vn -0.671891 -0.169474 0.721000
vn -0.721001 -0.169474 0.671890
vn -0.679881 -0.113869 0.724428
vn -0.680122 -0.113436 0.724270
vn -0.724428 -0.113868 0.679881
vn -0.724270 -0.113436 0.680121
vn 0.626057 0.464871 0.626057
vn 0.626057 0.464871 0.626057
vn 0.626057 0.464871 0.626057
vn 0.626057 0.464871 0.626057
vn -0.172801 0.044237 0.983963
vn -0.172801 0.044237 0.983963
vn -0.172801 0.044237 0.983963
vn -0.172801 0.044237 0.983963
vn 0.700211 -0.139320 0.700211
vn 0.700211 -0.139320 0.700211
vn 0.700211 -0.139320 0.700211
vn 0.700211 -0.139320 0.700211
vn 0.983937 0.044260 -0.172942
vn 0.983937 0.044260 -0.172942
vn 0.983937 0.044260 -0.172942
vn 0.983937 0.044260 -0.172942
vn -0.698181 0.158386 -0.698181
vn -0.698181 0.158386 -0.698181
vn -0.698181 0.158386 -0.698181
vn -0.698181 0.158386 -0.698181
vn -0.879767 -0.099981 -0.464772
vn -0.879768 -0.099981 -0.464772
vn -0.879767 -0.099981 -0.464772
vn -0.879768 -0.099981 -0.464772
vn -0.681217 0.268118 -0.681217
vn -0.681217 0.268118 -0.681217
vn -0.681217 0.268118 -0.681217
vn -0.681217 0.268118 -0.681217
vn -0.464601 -0.099943 -0.879862
vn -0.464601 -0.099944 -0.879862
vn -0.464601 -0.099944 -0.879862
vn -0.464601 -0.099944 -0.879862
vn 0.691572 0.208322 -0.691614
vn 0.691572 0.208322 -0.691614
vn 0.102855 0.989455 -0.101979
vn 0.098949 0.990248 -0.098070
vn -0.452878 0.195984 0.869766
vn -0.452878 0.195984 0.869766
vn -0.452878 0.195984 0.869765
vn -0.452878 0.195984 0.869765
vn 0.706421 0.044014 -0.706422
vn 0.706421 0.044014 -0.706422
vn -0.075821 -0.994235 0.075820
vn -0.075822 -0.994234 0.075822
vn -0.866957 0.195295 0.458526
vn -0.866957 0.195295 0.458526
vn -0.866957 0.195295 0.458526
vn -0.866957 0.195295 0.458526
vn -0.691572 0.208322 0.691614
vn -0.691572 0.208322 0.691614
vn -0.102854 0.989455 0.101978
vn -0.098949 0.990248 0.098071
vn 0.452884 0.195985 -0.869762
vn 0.452884 0.195985 -0.869762
vn 0.452884 0.195985 -0.869762
vn 0.452884 0.195985 -0.869762
vn -0.706421 0.044009 0.706422
vn -0.706421 0.044009 0.706422
vn 0.075821 -0.994235 -0.075821
vn 0.075822 -0.994234 -0.075822
vn 0.866954 0.195293 -0.458532
vn 0.866954 0.195293 -0.458532
vn 0.866954 0.195293 -0.458532
vn 0.866954 0.195293 -0.458532
vn 0.973639 0.224777 0.038768
vn 0.973639 0.224777 0.038768
vn 0.973639 0.224777 0.038768
vn 0.973639 0.224777 0.038768
vn -0.038442 0.224804 -0.973645
vn -0.038442 0.224804 -0.973645
vn -0.038442 0.224804 -0.973645
vn -0.038442 0.224804 -0.973645
vn -0.973638 0.224777 -0.038771
vn -0.973639 0.224777 -0.038771
vn -0.973638 0.224777 -0.038771
vn -0.973639 0.224777 -0.038771
vn 0.038481 0.224802 0.973644
vn 0.038481 0.224802 0.973644
vn 0.038481 0.224802 0.973644
vn 0.038481 0.224802 0.973644
vn 0.008991 -0.994189 0.107276
vn -0.107275 -0.994189 -0.008991
vn -0.008991 -0.994189 -0.107276
vn 0.107275 -0.994189 0.008991
vn 0.146907 -0.978180 0.146908
vn -0.135447 -0.981483 -0.135447
vn -0.135451 -0.981481 -0.135452
vn 0.146907 -0.978180 0.146907
vn 0.135448 -0.981482 0.135449
vn -0.146930 -0.978173 -0.146930
vn -0.146930 -0.978173 -0.146930
vn 0.135452 -0.981481 0.135452
vn -0.039052 0.999220 -0.005900
vn 0.005488 0.999243 0.038503
vn 0.039052 0.999220 0.005900
vn -0.005488 0.999243 -0.038503
vn -0.014180 0.999791 -0.014739
vn 0.095456 0.990846 0.095459
vn 0.095456 0.990846 0.095459
vn -0.012710 0.999831 -0.013261
vn -0.095456 0.990846 -0.095460
vn 0.012709 0.999831 0.013261
vn 0.014181 0.999791 0.014740
vn -0.095456 0.990846 -0.095460
vn -0.155519 -0.975514 -0.155519
vn -0.155519 -0.975514 -0.155519
vn -0.155519 -0.975514 -0.155519
vn -0.155519 -0.975514 -0.155519
vn -0.941795 0.077287 0.327184
vn -0.941795 0.077287 0.327184
vn -0.941795 0.077287 0.327184
vn -0.941795 0.077287 0.327184
vn -0.420989 0.803453 -0.420989
vn -0.420989 0.803453 -0.420989
vn -0.420989 0.803453 -0.420989
vn -0.420989 0.803453 -0.420989
vn 0.327162 0.077287 -0.941803
vn 0.327162 0.077287 -0.941803
vn 0.327162 0.077287 -0.941803
vn 0.327162 0.077287 -0.941803
vn -0.420995 0.803447 0.420995
vn -0.420995 0.803447 0.420995
vn -0.420995 0.803447 0.420995
vn -0.420995 0.803447 0.420995
vn -0.941793 0.077289 -0.327188
vn -0.941793 0.077289 -0.327188
vn -0.941793 0.077289 -0.327188
vn -0.941793 0.077289 -0.327189
vn -0.155520 -0.975514 0.155520
vn -0.155520 -0.975514 0.155520
vn -0.155520 -0.975514 0.155520
vn -0.155520 -0.975514 0.155520
vn 0.327148 0.077282 0.941808
vn 0.327148 0.077282 0.941808
vn 0.327148 0.077282 0.941808
vn 0.327148 0.077282 0.941808
vn 0.423100 0.801232 0.423100
vn 0.423100 0.801232 0.423100
vn 0.423100 0.801232 0.423100
vn 0.423100 0.801232 0.423100
vn -0.324067 0.076600 0.942928
vn -0.324067 0.076600 0.942928
vn -0.324067 0.076600 0.942928
vn -0.324067 0.076600 0.942928
vn 0.157636 -0.974834 0.157636
vn 0.157636 -0.974834 0.157636
vn 0.157636 -0.974834 0.157636
vn 0.157636 -0.974834 0.157636
vn 0.942934 0.076596 -0.324051
vn 0.942934 0.076596 -0.324051
vn 0.942934 0.076596 -0.324051
vn 0.942934 0.076596 -0.324051
vn 0.941793 0.077289 0.327188
vn 0.941793 0.077289 0.327188
vn 0.941793 0.077289 0.327188
vn 0.941793 0.077289 0.327189
vn 0.155520 -0.975514 -0.155520
vn 0.155520 -0.975514 -0.155520
vn 0.155520 -0.975514 -0.155520
vn 0.155520 -0.975514 -0.155520
vn -0.327148 0.077282 -0.941808
vn -0.327148 0.077282 -0.941808
vn -0.327148 0.077282 -0.941808
vn -0.327148 0.077282 -0.941808
vn 0.420995 0.803447 -0.420995
vn 0.420995 0.803447 -0.420995
vn 0.420995 0.803447 -0.420995
vn 0.420995 0.803447 -0.420995
vn 0.699018 0.150818 0.699019
vn 0.699018 0.150818 0.699019
vn 0.699018 0.150818 0.699019
vn 0.699018 0.150818 0.699019
vn -0.699018 -0.150828 -0.699017
vn -0.699018 -0.150828 -0.699017
vn -0.699018 -0.150828 -0.699017
vn -0.699018 -0.150828 -0.699017
vn 0.699018 0.150820 -0.699019
vn 0.699018 0.150820 -0.699019
vn 0.699018 0.150820 -0.699019
vn 0.699018 0.150820 -0.699019
vn -0.699017 -0.150830 0.699017
vn -0.699017 -0.150830 0.699017
vn -0.699017 -0.150830 0.699017
vn -0.699017 -0.150830 0.699017
vn -0.699019 0.150820 -0.699018
vn -0.699019 0.150820 -0.699018
vn -0.699019 0.150820 -0.699018
vn -0.699019 0.150820 -0.699018
vn 0.699016 -0.150842 0.699016
vn 0.699016 -0.150842 0.699016
vn 0.699016 -0.150842 0.699016
vn 0.699016 -0.150842 0.699016
vn -0.699018 0.150820 0.699019
vn -0.699018 0.150820 0.699019
vn -0.699018 0.150820 0.699019
vn -0.699018 0.150820 0.699019
vn 0.699017 -0.150830 -0.699017
vn 0.699017 -0.150830 -0.699017
vn 0.699017 -0.150830 -0.699017
vn 0.699017 -0.150830 -0.699017
vn 0.106646 0.988561 0.106646
vn 0.106646 0.988561 0.106646
vn 0.106646 0.988561 0.106646
vn 0.106646 0.988561 0.106646
vn -0.681381 0.156192 0.715069
vn -0.681381 0.156192 0.715069
vn -0.681381 0.156192 0.715069
vn -0.681381 0.156192 0.715069
vn -0.106625 -0.988566 -0.106625
vn -0.106625 -0.988566 -0.106625
vn -0.106625 -0.988566 -0.106625
vn -0.106625 -0.988566 -0.106625
vn 0.715077 0.156189 -0.681374
vn 0.715077 0.156189 -0.681374
vn 0.715077 0.156189 -0.681374
vn 0.715077 0.156189 -0.681374
vn 0.106607 -0.988570 0.106607
vn 0.106607 -0.988570 0.106607
vn 0.106607 -0.988570 0.106607
vn 0.106607 -0.988570 0.106607
vn 0.681401 0.156199 -0.715049
vn 0.681401 0.156199 -0.715049
vn 0.681401 0.156199 -0.715049
vn 0.681401 0.156199 -0.715049
vn -0.715093 0.156183 0.681358
vn -0.715093 0.156183 0.681358
vn -0.715093 0.156183 0.681358
vn -0.715093 0.156183 0.681358
vn -0.106639 0.988563 -0.106639
vn -0.106639 0.988563 -0.106639
vn -0.106639 0.988563 -0.106639
vn -0.106639 0.988563 -0.106639
vn -0.106641 0.988562 0.106641
vn -0.106641 0.988562 0.106641
vn -0.106641 0.988562 0.106641
vn -0.106641 0.988562 0.106641
vn -0.715081 0.156188 -0.681370
vn -0.715081 0.156188 -0.681370
vn -0.715081 0.156188 -0.681370
vn -0.715081 0.156188 -0.681370
vn 0.106610 -0.988569 -0.106610
vn 0.106610 -0.988569 -0.106610
vn 0.106610 -0.988569 -0.106610
vn 0.106610 -0.988569 -0.106610
vn 0.681389 0.156194 0.715061
vn 0.681389 0.156194 0.715061
vn 0.681389 0.156194 0.715061
vn 0.681389 0.156194 0.715061
vn 0.715081 0.156188 0.681370
vn 0.715081 0.156188 0.681370
vn 0.715081 0.156188 0.681370
vn 0.715081 0.156188 0.681370
vn -0.106610 -0.988569 0.106610
vn -0.106610 -0.988569 0.106610
vn -0.106610 -0.988569 0.106610
vn -0.106610 -0.988569 0.106610
vn -0.681389 0.156194 -0.715061
vn -0.681389 0.156194 -0.715061
vn -0.681389 0.156194 -0.715061
vn -0.681389 0.156194 -0.715061
vn 0.106641 0.988562 -0.106641
vn 0.106641 0.988562 -0.106641
vn 0.106641 0.988562 -0.106641
vn 0.106641 0.988562 -0.106641
vn 0.000000 1.000000 0.000000
vn 0.000000 1.000000 0.000000
vn 0.000000 1.000000 0.000000
vn 0.000000 1.000000 0.000000
s off
g Lamp_Basket_Cage
usemtl initialShadingGroup
f 7/121/1 8/122/2 2/123/3 1/124/4
s 1
f 3/207/5 4/208/6 10/206/7 9/205/8
s 2
f 4/7/9 6/8/10 11/6/11 10/5/12
s 3
f 6/223/13 5/224/14 12/222/15 11/221/16
s 4
f 5/23/17 3/24/18 9/22/19 12/21/20
s 1
f 9/205/8 10/206/7 14/202/21 13/201/22
s 2
f 10/5/12 11/6/11 15/2/23 14/1/24
s 3
f 11/221/16 12/222/15 16/218/25 15/217/26
s 4
f 12/21/20 9/22/19 13/18/27 16/17/28
s 1
f 13/201/22 14/202/21 18/203/29 17/204/30
s 2
f 14/1/24 15/2/23 19/3/31 18/4/32
s 3
f 15/217/26 16/218/25 20/219/33 19/220/34
s 4
f 16/17/28 13/18/27 17/19/35 20/20/36
s 5
f 1/211/37 2/213/38 22/214/39 21/212/40
f 2/213/38 4/208/41 23/210/42 22/214/39
f 4/208/41 3/207/43 24/209/44 23/210/42
f 3/207/43 1/211/37 21/212/40 24/209/44
s 6
f 5/224/45 6/223/46 26/225/47 25/226/48
f 6/223/46 8/227/49 27/228/50 26/225/47
f 8/227/49 7/229/51 28/230/52 27/228/50
f 7/229/51 5/224/45 25/226/48 28/230/52
s 7
f 2/11/53 8/13/54 29/14/55 30/12/56
f 8/13/54 6/8/57 31/10/58 29/14/55
f 6/8/57 4/7/59 32/9/60 31/10/58
f 4/7/59 2/11/53 30/12/56 32/9/60
s 8
f 7/27/61 1/29/62 34/30/63 33/28/64
f 1/29/62 3/24/65 35/26/66 34/30/63
f 3/24/65 5/23/67 36/25/68 35/26/66
f 5/23/67 7/27/61 33/28/64 36/25/68
s off
f 69/233/69 70/234/70 38/235/71 37/236/72
f 70/234/73 71/237/74 39/238/75 38/235/76
f 71/237/77 72/239/78 40/240/79 39/238/80
f 72/239/81 69/233/82 37/236/83 40/240/84
f 53/241/85 54/242/86 42/243/87 41/244/88
f 54/242/89 55/245/90 43/246/91 42/243/92
f 55/245/93 56/247/94 44/248/95 43/246/96
f 56/247/97 53/241/98 41/244/99 44/248/100
s 9
f 80/33/101 77/34/102 45/35/103 46/36/104
s off
f 77/37/105 78/38/106 47/39/107 45/40/108
s 10
f 78/43/109 79/44/110 48/45/111 47/46/112
s off
f 79/47/113 80/48/114 46/49/115 48/50/116
s 9
f 61/53/117 62/54/118 50/55/119 49/56/120
s off
f 62/57/121 63/58/122 51/59/123 50/60/124
s 10
f 63/63/125 64/64/126 52/65/127 51/66/128
s off
f 64/67/129 61/68/130 49/69/131 52/70/132
f 44/71/133 41/72/134 52/70/135 49/69/136
f 40/61/137 37/62/138 50/60/139 51/59/140
f 38/51/141 39/52/142 48/50/143 46/49/144
f 42/41/145 43/42/146 45/40/147 47/39/148
s 10
f 86/125/149 85/126/150 87/127/151 88/128/152
f 40/133/153 51/131/154 48/130/155 39/134/156
f 52/132/157 41/135/158 42/136/159 47/129/160
s 9
f 90/137/161 89/138/162 91/139/163 92/140/164
f 50/144/165 37/147/166 38/148/167 46/141/168
f 44/145/169 49/143/170 45/142/171 43/146/172
s off
f 25/149/173 26/150/174 58/151/175 57/152/176
f 26/73/177 27/74/178 59/75/179 58/76/180
f 27/228/181 28/230/182 60/231/183 59/232/184
f 28/77/185 25/78/186 57/79/187 60/80/188
f 33/28/189 34/30/190 66/31/191 65/32/192
f 34/249/193 35/250/194 67/251/195 66/252/196
f 35/153/197 36/154/198 68/155/199 67/156/200
f 36/253/201 33/254/202 65/255/203 68/256/204
f 21/212/205 22/214/206 74/215/207 73/216/208
f 22/81/209 23/82/210 75/83/211 74/84/212
f 23/157/213 24/158/214 76/159/215 75/160/216
f 24/85/217 21/86/218 73/87/219 76/88/220
f 29/257/221 31/258/222 82/259/223 81/260/224
f 31/161/225 32/162/226 83/163/227 82/164/228
f 32/261/229 30/262/230 84/263/231 83/264/232
f 30/12/233 29/14/234 81/15/235 84/16/236
usemtl blinn1SG
f 56/265/237 55/266/238 54/267/239 53/268/240
f 60/269/241 57/270/242 58/271/243 59/272/244
f 64/89/245 63/90/246 62/91/247 61/92/248
f 68/93/249 65/94/250 66/95/251 67/96/252
f 72/273/253 71/274/254 70/275/255 69/276/256
f 76/277/257 73/278/258 74/279/259 75/280/260
f 80/97/261 79/98/262 78/99/263 77/100/264
f 84/101/265 81/102/266 82/103/267 83/104/268
usemtl initialShadingGroup
f 73/165/269 74/166/270 70/167/271 69/168/272
f 74/105/273 75/106/274 71/107/275 70/108/276
f 75/169/277 76/170/278 72/171/279 71/172/280
f 76/109/281 73/110/282 69/111/283 72/112/284
f 53/173/285 57/174/286 58/175/287 54/176/288
f 56/113/289 60/114/290 57/115/291 53/116/292
f 54/117/293 58/118/294 59/119/295 55/120/296
f 55/177/297 59/178/298 60/179/299 56/180/300
f 61/181/301 65/182/302 66/183/303 62/184/304
f 62/281/305 66/282/306 67/283/307 63/284/308
f 63/185/309 67/186/310 68/187/311 64/188/312
f 64/285/313 68/286/314 65/287/315 61/288/316
f 77/289/317 81/290/318 82/291/319 78/292/320
f 78/189/321 82/190/322 83/191/323 79/192/324
f 79/293/325 83/294/326 84/295/327 80/296/328
f 80/193/329 84/194/330 81/195/331 77/196/332
s 10
f 47/129/112 48/130/111 85/126/150 86/125/149
f 48/130/155 51/131/154 87/127/151 85/126/150
f 51/131/128 52/132/127 88/128/152 87/127/151
f 52/132/157 47/129/160 86/125/149 88/128/152
s 9
f 46/141/104 45/142/103 89/138/162 90/137/161
f 45/142/171 49/143/170 91/139/163 89/138/162
f 49/143/120 50/144/119 92/140/164 91/139/163
f 50/144/165 46/141/168 90/137/161 92/140/164
s off
f 18/197/333 19/198/334 20/199/335 17/200/336
